<svg xmlns="http://www.w3.org/2000/svg" width="1553" height="1235" viewBox="0 0 1553 1235"><defs><style type="text/css"/></defs><g transform="translate(1342.8501892242045 608.5086578651014) scale(1)"><g class="relationship"><g transform="translate(-176.75421138663324 -239) rotate(180)" stroke-width="5" stroke="#000000"><path d="M 159 0 L 554.0338359936268 0"/><polygon points="-24.8621506177483,0 -27.62461179749811,9.20820393249937 0,0 -27.62461179749811,-9.20820393249937" fill="#000000" transform="translate(578.8959866113751 0) rotate(0)" stroke="none"/></g><g transform="translate(-533.2711293834466 -238.99999999999994) rotate(360) translate(0 -45.8)"><g transform="translate(0 0)"><g transform="translate(-100.3499984741211 0)" fill="#ffffff" stroke="#000000" stroke-width="0"><rect x="0" y="0" width="200.6999969482422" height="34" rx="5" ry="5" stroke="none"/><text xml:space="preserve" x="5" y="23.685546875" stroke="none" text-anchor="left" font-family="sans-serif" font-size="24" font-weight="normal" fill="#000000">IN_CHANGELOG</text></g></g><g transform="translate(0 34)"><g transform="translate(-137.42500019073486 0)" fill="white"><rect x="0" y="0" width="274.8500003814697" height="57.599999999999994" rx="0" ry="0" stroke="none"/><g font-family="sans-serif" font-size="24" font-weight="normal" fill="#000000" text-anchor="end"><text xml:space="preserve" x="169.45000171661377" y="21.085546875" stroke="none">dateExecuted:</text><text xml:space="preserve" x="176.11666822433472" y="21.085546875" stroke="none" text-anchor="start">datetime</text><text xml:space="preserve" x="169.45000171661377" y="49.885546874999996" stroke="none" text-anchor="end">orderExecuted:</text><text xml:space="preserve" x="176.11666822433472" y="49.885546874999996" stroke="none" text-anchor="start">int64</text></g></g></g></g></g><g class="relationship"><g transform="translate(-822.7190843729414 133.94799330568776) rotate(-30.000000000000025)" stroke-width="5" stroke="#000000"><path d="M 129 0 L 562.0338359936267 0"/><polygon points="-24.8621506177483,0 -27.62461179749811,9.20820393249937 0,0 -27.62461179749811,-9.20820393249937" fill="#000000" transform="translate(586.895986611375 0) rotate(0)" stroke="none"/></g><g transform="translate(-523.4926559503965 -38.81046569271902) rotate(-30.000000000000025) translate(0 -17)"><g transform="translate(0 0)"><g transform="translate(-112.34166717529297 0)" fill="#ffffff" stroke="#000000" stroke-width="0"><rect x="0" y="0" width="224.68333435058594" height="34" rx="5" ry="5" stroke="none"/><text xml:space="preserve" x="5" y="23.685546875" stroke="none" text-anchor="left" font-family="sans-serif" font-size="24" font-weight="normal" fill="#000000">CONTEXTUALIZES</text></g></g></g></g><g class="relationship"><g transform="translate(-516.1187636989021 348.796646892716) rotate(-60.00000000000002)" stroke-width="5" stroke="#000000"><path d="M 129 0 L 494.86695400678957 0"/><polygon points="-24.8621506177483,0 -27.62461179749811,9.20820393249937 0,0 -27.62461179749811,-9.20820393249937" fill="#000000" transform="translate(519.7291046245379 0) rotate(0)" stroke="none"/></g><g transform="translate(-360.15202519720475 78.65433151696709) rotate(-60.00000000000002) translate(0 -17)"><g transform="translate(0 0)"><g transform="translate(-50.349998474121094 0)" fill="#ffffff" stroke="#000000" stroke-width="0"><rect x="0" y="0" width="100.69999694824219" height="34" rx="5" ry="5" stroke="none"/><text xml:space="preserve" x="5" y="23.685546875" stroke="none" text-anchor="left" font-family="sans-serif" font-size="24" font-weight="normal" fill="#000000">LABELS</text></g></g></g></g><g class="relationship"><g transform="translate(-176.75421138663324 413.30434827920055) rotate(-90)" stroke-width="5" stroke="#000000"><path d="M 129 0 L 468.44219766145227 0"/><polygon points="-24.8621506177483,0 -27.62461179749811,9.20820393249937 0,0 -27.62461179749811,-9.20820393249937" fill="#000000" transform="translate(493.30434827920055 0) rotate(0)" stroke="none"/></g><g transform="translate(-176.75421138663322 114.58324944847442) rotate(90) translate(0 -17)"><g transform="translate(0 0)"><g transform="translate(-36.78333282470703 0)" fill="#ffffff" stroke="#000000" stroke-width="0"><rect x="0" y="0" width="73.56666564941406" height="34" rx="5" ry="5" stroke="none"/><text xml:space="preserve" x="5" y="23.685546875" stroke="none" text-anchor="left" font-family="sans-serif" font-size="24" font-weight="normal" fill="#000000">TAGS</text></g></g></g></g><g class="node"><g fill="#ffffff" stroke="#000000" stroke-width="4"><circle cx="-176.75421138663324" cy="-239" r="152"/></g><g transform="translate(-176.75421138663324 -239)"><g transform="scale(0.6130530025392369) translate(0 -27)"><g transform="translate(0 0)"><g transform="translate(-234.97500610351562 0)"><g fill="#ffffff" stroke="#000000" stroke-width="4"><rect x="0" y="0" width="469.95001220703125" height="54" rx="27" ry="27"/><text xml:space="preserve" x="27" y="38.142578125" stroke="none" font-family="sans-serif" font-size="40" font-weight="normal" fill="#000000">__LiquibaseChangeSet</text></g></g></g></g><g transform="translate(110.30865786510142 -369.5086578651014)"><g transform="translate(0 0)"><g transform="translate(0 0)" fill="white"><rect x="0" y="0" width="276.21667289733887" height="259.2" rx="0" ry="0" stroke="none"/><g font-family="sans-serif" font-size="24" font-weight="normal" fill="#000000" text-anchor="end"><text xml:space="preserve" x="204.18333911895752" y="21.085546875" stroke="none">id:</text><text xml:space="preserve" x="210.85000562667847" y="21.085546875" stroke="none" text-anchor="start">string</text><text xml:space="preserve" x="204.18333911895752" y="49.885546874999996" stroke="none" text-anchor="end">author:</text><text xml:space="preserve" x="210.85000562667847" y="49.885546874999996" stroke="none" text-anchor="start">string</text><text xml:space="preserve" x="204.18333911895752" y="78.685546875" stroke="none" text-anchor="end">changeLog:</text><text xml:space="preserve" x="210.85000562667847" y="78.685546875" stroke="none" text-anchor="start">string</text><text xml:space="preserve" x="204.18333911895752" y="107.48554687499998" stroke="none" text-anchor="end">checkSum:</text><text xml:space="preserve" x="210.85000562667847" y="107.48554687499998" stroke="none" text-anchor="start">string</text><text xml:space="preserve" x="204.18333911895752" y="136.285546875" stroke="none" text-anchor="end">execType:</text><text xml:space="preserve" x="210.85000562667847" y="136.285546875" stroke="none" text-anchor="start">string</text><text xml:space="preserve" x="204.18333911895752" y="165.08554687499998" stroke="none" text-anchor="end">description:</text><text xml:space="preserve" x="210.85000562667847" y="165.08554687499998" stroke="none" text-anchor="start">string</text><text xml:space="preserve" x="204.18333911895752" y="193.885546875" stroke="none" text-anchor="end">comments:</text><text xml:space="preserve" x="210.85000562667847" y="193.885546875" stroke="none" text-anchor="start">string</text><text xml:space="preserve" x="204.18333911895752" y="222.68554687499997" stroke="none" text-anchor="end">storedChangeLog:</text><text xml:space="preserve" x="210.85000562667847" y="222.68554687499997" stroke="none" text-anchor="start">string</text><text xml:space="preserve" x="204.18333911895752" y="251.48554687499998" stroke="none" text-anchor="end">liquibaseVersion:</text><text xml:space="preserve" x="210.85000562667847" y="251.48554687499998" stroke="none" text-anchor="start">string</text></g></g></g></g></g></g><g class="node"><g fill="#ffffff" stroke="#000000" stroke-width="12"><circle cx="-922.6501979980083" cy="-239" r="156"/></g><g transform="translate(-922.6501979980083 -239)"><g transform="scale(0.6045456541666141) translate(0 -27)"><g transform="translate(0 0)"><g transform="translate(-238.3249969482422 0)"><g fill="#ffffff" stroke="#000000" stroke-width="4"><rect x="0" y="0" width="476.6499938964844" height="54" rx="27" ry="27"/><text xml:space="preserve" x="27" y="38.142578125" stroke="none" font-family="sans-serif" font-size="40" font-weight="normal" fill="#000000">__LiquibaseChangeLog</text></g></g></g></g><g transform="translate(-164 -28.799999999999976)"><g transform="translate(0 0)"><g transform="translate(-256.1999912261963 0)" fill="white"><rect x="0" y="0" width="256.1999912261963" height="57.599999999999994" rx="0" ry="0" stroke="none"/><g font-family="sans-serif" font-size="24" font-weight="normal" fill="#000000" text-anchor="end"><text xml:space="preserve" x="150.79999256134033" y="21.085546875" stroke="none">dateCreated:</text><text xml:space="preserve" x="157.46665906906128" y="21.085546875" stroke="none" text-anchor="start">datetime</text><text xml:space="preserve" x="150.79999256134033" y="49.885546874999996" stroke="none" text-anchor="end">dateUpdated:</text><text xml:space="preserve" x="157.46665906906128" y="49.885546874999996" stroke="none" text-anchor="start">datetime</text></g></g></g></g></g></g><g class="node"><g fill="#ffffff" stroke="#000000" stroke-width="4"><circle cx="-822.7190843729414" cy="133.94799330568776" r="122"/></g><g transform="translate(-822.7190843729414 133.94799330568776)"><g transform="scale(0.5593459765339354) translate(0 -27)"><g transform="translate(0 0)"><g transform="translate(-203.81666564941406 0)"><g fill="#ffffff" stroke="#000000" stroke-width="4"><rect x="0" y="0" width="407.6333312988281" height="54" rx="27" ry="27"/><text xml:space="preserve" x="27" y="38.142578125" stroke="none" font-family="sans-serif" font-size="40" font-weight="normal" fill="#000000">__LiquibaseContext</text></g></g></g></g><g transform="translate(-89.09545442950498 89.095454429505)"><g transform="translate(0 0)"><g transform="translate(-256.1999912261963 0)" fill="white"><rect x="0" y="0" width="256.1999912261963" height="86.39999999999999" rx="0" ry="0" stroke="none"/><g font-family="sans-serif" font-size="24" font-weight="normal" fill="#000000" text-anchor="end"><text xml:space="preserve" x="150.79999256134033" y="21.085546875" stroke="none">context:</text><text xml:space="preserve" x="157.46665906906128" y="21.085546875" stroke="none" text-anchor="start">string</text><text xml:space="preserve" x="150.79999256134033" y="49.885546874999996" stroke="none" text-anchor="end">dateCreated:</text><text xml:space="preserve" x="157.46665906906128" y="49.885546874999996" stroke="none" text-anchor="start">datetime</text><text xml:space="preserve" x="150.79999256134033" y="78.685546875" stroke="none" text-anchor="end">dateUpdated:</text><text xml:space="preserve" x="157.46665906906128" y="78.685546875" stroke="none" text-anchor="start">datetime</text></g></g></g></g></g></g><g class="node"><g fill="#ffffff" stroke="#000000" stroke-width="4"><circle cx="-516.1187636989021" cy="348.796646892716" r="122"/></g><g transform="translate(-516.1187636989021 348.796646892716)"><g transform="scale(0.618954161156406) translate(0 -27)"><g transform="translate(0 0)"><g transform="translate(-183.8249969482422 0)"><g fill="#ffffff" stroke="#000000" stroke-width="4"><rect x="0" y="0" width="367.6499938964844" height="54" rx="27" ry="27"/><text xml:space="preserve" x="27" y="38.142578125" stroke="none" font-family="sans-serif" font-size="40" font-weight="normal" fill="#000000">__LiquibaseLabel</text></g></g></g></g><g transform="translate(-89.09545442950498 89.095454429505)"><g transform="translate(0 0)"><g transform="translate(-256.1999912261963 0)" fill="white"><rect x="0" y="0" width="256.1999912261963" height="86.39999999999999" rx="0" ry="0" stroke="none"/><g font-family="sans-serif" font-size="24" font-weight="normal" fill="#000000" text-anchor="end"><text xml:space="preserve" x="150.79999256134033" y="21.085546875" stroke="none">label:</text><text xml:space="preserve" x="157.46665906906128" y="21.085546875" stroke="none" text-anchor="start">string</text><text xml:space="preserve" x="150.79999256134033" y="49.885546874999996" stroke="none" text-anchor="end">dateCreated:</text><text xml:space="preserve" x="157.46665906906128" y="49.885546874999996" stroke="none" text-anchor="start">datetime</text><text xml:space="preserve" x="150.79999256134033" y="78.685546875" stroke="none" text-anchor="end">dateUpdated:</text><text xml:space="preserve" x="157.46665906906128" y="78.685546875" stroke="none" text-anchor="start">datetime</text></g></g></g></g></g></g><g class="node"><g fill="#ffffff" stroke="#000000" stroke-width="4"><circle cx="-176.75421138663324" cy="413.30434827920055" r="122"/></g><g transform="translate(-176.75421138663324 413.30434827920055)"><g transform="scale(0.6792668562852785) translate(0 -27)"><g transform="translate(0 0)"><g transform="translate(-167.13333129882812 0)"><g fill="#ffffff" stroke="#000000" stroke-width="4"><rect x="0" y="0" width="334.26666259765625" height="54" rx="27" ry="27"/><text xml:space="preserve" x="27" y="38.142578125" stroke="none" font-family="sans-serif" font-size="40" font-weight="normal" fill="#000000">__LiquibaseTag</text></g></g></g></g><g transform="translate(7.715274834628325e-15 126)"><g transform="translate(0 0)"><g transform="translate(-128.09999561309814 0)" fill="white"><rect x="0" y="0" width="256.1999912261963" height="86.39999999999999" rx="0" ry="0" stroke="none"/><g font-family="sans-serif" font-size="24" font-weight="normal" fill="#000000" text-anchor="end"><text xml:space="preserve" x="150.79999256134033" y="21.085546875" stroke="none">tag:</text><text xml:space="preserve" x="157.46665906906128" y="21.085546875" stroke="none" text-anchor="start">string</text><text xml:space="preserve" x="150.79999256134033" y="49.885546874999996" stroke="none" text-anchor="end">dateCreated:</text><text xml:space="preserve" x="157.46665906906128" y="49.885546874999996" stroke="none" text-anchor="start">datetime</text><text xml:space="preserve" x="150.79999256134033" y="78.685546875" stroke="none" text-anchor="end">dateUpdated:</text><text xml:space="preserve" x="157.46665906906128" y="78.685546875" stroke="none" text-anchor="start">datetime</text></g></g></g></g></g></g></g></svg>